# xmcd
#
# Track frame offsets: 
#        150
#        17845
#        34466
#        50552
#        66419
#        83487
#        98890
#        128224
#        148611
#        162981
#        188882
#
# Disc length: 2825 seconds
#
# Revision: 0
# Processed by: cddbd v1.5.2PL0 Copyright (c) Steve Scherf et al.
# Submitted via: ExactAudioCopy v1.1
#
DISCID=9a0b070b
DTITLE=Nick Murphy - Run Fast Sleep Naked
DYEAR=2019
DGENRE=Soul
TTITLE0=Hear It Now
TTITLE1=Harry Takes Drugs On The Weekend
TTITLE2=Sanity
TTITLE3=Sunlight
TTITLE4=Some People
TTITLE5=Yeah I Care
TTITLE6=Novocaine And Coca Cola
TTITLE7=Never No
TTITLE8=Dangerous
TTITLE9=Believe (Me)
TTITLE10=Message You At Midnight
EXTD=
EXTT0=
EXTT1=
EXTT2=
EXTT3=
EXTT4=
EXTT5=
EXTT6=
EXTT7=
EXTT8=
EXTT9=
EXTT10=
PLAYORDER=
